HIERARCHY
ROOT Hips
{
 OFFSET 0.000000 0.000000 0.000000
 CHANNELS 6 Xposition Yposition Zposition Yrotation Xrotation Zrotation
 JOINT Chest
 {
  OFFSET 0.000000 10.080317 -0.001081
  CHANNELS 3 Yrotation Xrotation Zrotation
  JOINT Chest2
  {
   OFFSET 0.000000 11.096852 0.001963
   CHANNELS 3 Yrotation Xrotation Zrotation
   JOINT Chest3
   {
    OFFSET 0.000000 10.026525 0.000000
    CHANNELS 3 Yrotation Xrotation Zrotation
    JOINT Chest4
    {
     OFFSET 0.000000 10.026525 0.000000
     CHANNELS 3 Yrotation Xrotation Zrotation
     JOINT Neck
     {
      OFFSET 0.000000 14.108171 0.000000
      CHANNELS 3 Yrotation Xrotation Zrotation
      JOINT Head
      {
       OFFSET 0.000000 9.333493 0.004668
       CHANNELS 3 Yrotation Xrotation Zrotation
       End Site
       {
        OFFSET 0.000000 17.851786 0.002438
       }
      }
     }
     JOINT RightCollar
     {
      OFFSET -3.071622 7.873185 0.000000
      CHANNELS 3 Yrotation Xrotation Zrotation
      JOINT RightShoulder
      {
       OFFSET -14.378659 0.000000 0.000000
       CHANNELS 3 Yrotation Xrotation Zrotation
       JOINT RightElbow
       {
        OFFSET -30.778728 0.000000 0.000000
        CHANNELS 3 Yrotation Xrotation Zrotation
        JOINT RightWrist
        {
         OFFSET -25.164217 0.000000 0.000000
         CHANNELS 3 Yrotation Xrotation Zrotation
         End Site
         {
          OFFSET -18.796788 0.000000 0.000000
         }
        }
       }
      }
     }
     JOINT LeftCollar
     {
      OFFSET 3.071622 7.873185 0.000000
      CHANNELS 3 Yrotation Xrotation Zrotation
      JOINT LeftShoulder
      {
       OFFSET 14.378659 0.000000 0.000000
       CHANNELS 3 Yrotation Xrotation Zrotation
       JOINT LeftElbow
       {
        OFFSET 30.778728 0.000000 0.000000
        CHANNELS 3 Yrotation Xrotation Zrotation
        JOINT LeftWrist
        {
         OFFSET 25.164217 0.000000 0.000000
         CHANNELS 3 Yrotation Xrotation Zrotation
         End Site
         {
          OFFSET 18.796788 0.000000 0.000000
         }
        }
       }
      }
     }
    }
   }
  }
 }
 JOINT RightHip
 {
  OFFSET -8.194923 0.005295 0.000540
  CHANNELS 3 Yrotation Xrotation Zrotation
  JOINT RightKnee
  {
   OFFSET 0.000000 -42.473320 -0.000511
   CHANNELS 3 Yrotation Xrotation Zrotation
   JOINT RightAnkle
   {
    OFFSET 0.000000 -41.474259 -0.000865
    CHANNELS 3 Yrotation Xrotation Zrotation
    JOINT RightToe
    {
     OFFSET 0.000000 -7.354994 16.712725
     CHANNELS 3 Yrotation Xrotation Zrotation
     End Site
     {
      OFFSET 0.000000 -1.553903 6.764158
     }
    }
   }
  }
 }
 JOINT LeftHip
 {
  OFFSET 8.194923 0.005295 0.000540
  CHANNELS 3 Yrotation Xrotation Zrotation
  JOINT LeftKnee
  {
   OFFSET 0.000000 -42.473320 -0.000511
   CHANNELS 3 Yrotation Xrotation Zrotation
   JOINT LeftAnkle
   {
    OFFSET 0.000000 -41.474259 -0.000865
    CHANNELS 3 Yrotation Xrotation Zrotation
    JOINT LeftToe
    {
     OFFSET 0.000000 -7.354994 16.712725
     CHANNELS 3 Yrotation Xrotation Zrotation
     End Site
     {
      OFFSET 0.000000 -1.553903 6.764158
     }
    }
   }
  }
 }
}
MOTION
Frames: 7
Frame Time: 0.016667
0.000000 91.111157 0.000000 0.000000 -5.826342 0.000000 0.000000 11.116423 0.000000 0.000000 -5.290081 0.000000 0.000000 0.000000 0.000000 0.000000 0.000000 0.000000 0.000000 12.665069 0.000000 0.000000 0.575450 0.000000 0.000000 0.000000 0.000000 0.000000 0.000000 0.000000 2.337306 0.000000 0.000000 -2.337306 0.000000 0.000000 0.000000 0.000000 0.000000 0.000000 0.000000 0.000000 -2.337306 0.000000 0.000000 2.337306 0.000000 0.000000 0.000000 8.578828 0.000000 0.000000 1.905768 0.000000 0.000000 -4.658254 0.000000 0.000000 0.000000 0.000000 0.000000 8.578828 0.000000 0.000000 1.905768 0.000000 0.000000 -4.658254 0.000000 0.000000 0.000000 0.000000
-125.870085 92.733656 -146.778032 -6.165213 -4.913630 0.363769 4.123120 4.974810 0.701764 1.828399 2.222347 0.286017 1.828399 2.222347 0.286017 1.370087 1.667634 0.207836 -0.910412 20.958595 1.558445 -2.110308 2.776779 3.096850 -6.578971 -1.330917 14.154960 1.413259 0.244812 59.315453 29.379898 16.124694 17.381181 -3.848796 2.463828 -15.290465 -11.979395 1.018972 -9.965401 0.851562 -14.584385 -69.722786 -18.984107 27.629538 -17.469444 9.176744 8.172572 18.503922 -5.291950 -4.139835 -0.405164 6.746696 18.508133 -0.316163 1.968006 -6.583507 2.408732 -0.153321 -0.491854 0.114791 9.883567 6.150320 -0.611183 6.780354 4.139395 -2.099675 4.443367 -6.911707 2.463594 0.524078 0.466879 0.352845
-125.780281 92.683460 -146.895729 -6.213808 -5.070798 0.552468 4.126318 5.081890 0.608451 1.830826 2.274419 0.260821 1.830826 2.274419 0.260821 1.371968 1.706614 0.188776 -0.890120 20.966132 1.524169 -2.063229 2.789042 3.028498 -6.540269 -1.322353 14.218391 1.500014 0.262126 59.392545 29.320590 16.233005 17.417751 -3.859681 2.475957 -15.288852 -11.970432 0.978061 -9.981772 0.884904 -14.654241 -69.686059 -19.080440 27.625387 -17.570333 9.155040 8.186827 18.538233 -4.831124 -4.525707 -0.462700 6.089867 19.415560 -0.709219 2.117361 -6.853780 2.526999 -0.128118 -0.533440 0.142443 9.550952 6.314170 -0.858844 6.829953 4.042330 -2.154010 4.763890 -6.924529 2.501394 0.493409 0.500240 0.370186
-125.681028 92.631681 -147.014064 -6.263616 -5.248917 0.734718 4.113543 5.182475 0.517292 1.826532 2.323622 0.238801 1.826532 2.323622 0.238801 1.368803 1.743449 0.172130 -0.870324 20.968308 1.487306 -2.016441 2.791328 2.955727 -6.478124 -1.294960 14.264644 1.575155 0.305020 59.490971 29.279139 16.346759 17.427984 -3.873743 2.492690 -15.275126 -11.949072 0.934527 -9.997431 0.932746 -14.680965 -69.645963 -19.166749 27.609246 -17.656921 9.123816 8.204306 18.571427 -4.688120 -4.749293 -0.577530 6.029836 20.043540 -0.903899 2.073687 -7.089377 2.593628 -0.135261 -0.496470 0.169198 9.301926 6.488737 -1.072608 6.887004 3.968751 -2.229953 4.975482 -6.971121 2.548400 0.476582 0.551159 0.386863
-125.585194 92.579836 -147.112593 -6.254686 -5.401067 0.903698 4.090170 5.279811 0.425276 1.817694 2.363492 0.218221 1.817694 2.363492 0.218221 1.362233 1.773287 0.156611 -0.858826 20.969236 1.454181 -1.985845 2.791710 2.892201 -6.458887 -1.282191 14.302280 1.640627 0.395148 59.618075 29.223914 16.452941 17.430085 -3.896198 2.495985 -15.247382 -11.949566 0.909524 -9.990715 0.950807 -14.684121 -69.619684 -19.205188 27.591647 -17.691772 9.114603 8.219161 18.588081 -4.683778 -4.848547 -0.722891 6.127842 20.427178 -1.020467 1.956182 -7.333417 2.626693 -0.133466 -0.391325 0.204552 9.112842 6.635653 -1.265539 6.901633 3.918520 -2.303498 5.117383 -7.043704 2.599506 0.461478 0.607892 0.392329
-125.494837 92.538186 -147.194905 -6.223633 -5.518781 1.013485 4.053127 5.333840 0.369156 1.804229 2.386076 0.204548 1.804229 2.386076 0.204548 1.352177 1.790179 0.146343 -0.852633 20.991521 1.431733 -1.967457 2.832240 2.849138 -6.441326 -1.247034 14.332267 1.648850 0.484807 59.753350 29.166666 16.555065 17.438397 -3.893264 2.513448 -15.238721 -11.972029 0.915068 -10.004900 0.938433 -14.683135 -69.563661 -19.172724 27.556052 -17.679754 9.102320 8.239463 18.591467 -4.707915 -4.833895 -0.813870 6.236024 20.558556 -1.106541 1.822113 -7.552743 2.626686 -0.136292 -0.238796 0.234811 9.034992 6.736864 -1.386332 6.863577 3.891343 -2.374979 5.165108 -7.103817 2.647346 0.458630 0.640582 0.397142
-125.400855 92.514337 -147.248468 -6.171895 -5.611655 1.082402 4.026439 5.371068 0.332848 1.793238 2.398080 0.194016 1.793238 2.398080 0.194016 1.343971 1.799148 0.138452 -0.849452 21.033051 1.422362 -1.957883 2.908978 2.830277 -6.466145 -1.186210 14.385794 1.682837 0.582292 59.885299 29.052367 16.658358 17.443046 -3.899334 2.511372 -15.255729 -11.991457 0.960424 -10.022341 0.883636 -14.694010 -69.517659 -19.033969 27.568688 -17.599710 9.077150 8.255875 18.587879 -4.656495 -4.738065 -0.905272 6.271781 20.524398 -1.165281 1.673394 -7.730302 2.629076 -0.137772 -0.100378 0.260614 8.947754 6.791438 -1.489856 6.866292 3.915871 -2.413934 5.197907 -7.133558 2.699910 0.440726 0.614043 0.381933
